<svg viewBox="0 0 250 250" fill="none" xmlns="http://www.w3.org/2000/svg"><path d="M250 125c0 69.036-55.964 125-125 125S0 194.036 0 125 55.964 0 125 0s125 55.964 125 125z" fill="#C9C9C9"/><path d="M67.469 194.369a30.425 30.425 0 0 1-.09-2.325v-36.033c0-16.569 13.432-30 30-30h56.251c16.568 0 30 13.431 30 30v36.033c0 1.091-.058 2.169-.172 3.231C167.87 208.218 147.844 216 126 216c-22.349 0-42.795-8.146-58.531-21.631zm95.334-124.967c0 20.657-16.745 37.402-37.402 37.402-20.656 0-37.402-16.745-37.402-37.402S104.745 32 125.401 32c20.657 0 37.402 16.745 37.402 37.402z" fill="#fff"/></svg>