<?xml version="1.0" encoding="UTF-8" standalone="no"?>
<!-- Uploaded to: SVG Repo, www.svgrepo.com, Generator: SVG Repo Mixer Tools -->

<svg
   fill="#000000"
   height="800px"
   width="800px"
   version="1.1"
   viewBox="0 0 512 512"
   enable-background="new 0 0 512 512"
   id="svg3"
   sodipodi:docname="nmic_50.svg"
   inkscape:version="1.3.1 (9b9bdc1480, 2023-11-25, custom)"
   xmlns:inkscape="http://www.inkscape.org/namespaces/inkscape"
   xmlns:sodipodi="http://sodipodi.sourceforge.net/DTD/sodipodi-0.dtd"
   xmlns="http://www.w3.org/2000/svg"
   xmlns:svg="http://www.w3.org/2000/svg">
  <sodipodi:namedview
     id="namedview1"
     pagecolor="#ffffff"
     bordercolor="#000000"
     borderopacity="0.25"
     inkscape:showpageshadow="2"
     inkscape:pageopacity="0.0"
     inkscape:pagecheckerboard="0"
     inkscape:deskcolor="#d1d1d1"
     inkscape:zoom="1.075"
     inkscape:cx="400"
     inkscape:cy="400"
     inkscape:window-width="1860"
     inkscape:window-height="1055"
     inkscape:window-x="60"
     inkscape:window-y="0"
     inkscape:window-maximized="1"
     inkscape:current-layer="g2" />
  <defs
     id="defs3" />
  <g
     id="g3">
    <g
       id="g2">
      <rect
         style="fill:#19e400;fill-opacity:1;stroke:none;stroke-width:1.8889"
         id="rect3"
         width="109.21125"
         height="121.15083"
         x="201.27122"
         y="164.34126" />
      <path
         d="m439.5,236c0-11.3-9.1-20.4-20.4-20.4s-20.4,9.1-20.4,20.4c0,70-64,126.9-142.7,126.9-78.7,0-142.7-56.9-142.7-126.9 0-11.3-9.1-20.4-20.4-20.4s-20.4,9.1-20.4,20.4c0,86.2 71.5,157.4 163.1,166.7v57.5h-23.6c-11.3,0-20.4,9.1-20.4,20.4 0,11.3 9.1,20.4 20.4,20.4h88c11.3,0 20.4-9.1 20.4-20.4 0-11.3-9.1-20.4-20.4-20.4h-23.6v-57.5c91.6-9.3 163.1-80.5 163.1-166.7z"
         id="path1"
         style="fill:#000000;fill-opacity:1" />
      <path
         d="m256,323.5c51,0 92.3-41.3 92.3-92.3v-127.9c0-51-41.3-92.3-92.3-92.3s-92.3,41.3-92.3,92.3v127.9c0,51 41.3,92.3 92.3,92.3zm-52.3-220.2c0-28.8 23.5-52.3 52.3-52.3s52.3,23.5 52.3,52.3v127.9c0,28.8-23.5,52.3-52.3,52.3s-52.3-23.5-52.3-52.3v-127.9z"
         id="path2"
         style="fill:#000000;fill-opacity:1" />
    </g>
  </g>
</svg>
